# xmcd
#
# Track frame offsets:
# 150
# 18855
# 41476
# 59719
# 77344
# 96022
# 113783
# 137897
# 157922
# 180034
# 199487
# 220516
#
# Disc length: 3146 seconds
#
# Revision: 1
# Processed by: cddbd v1.5.1PL2 Copyright (c) Steve Scherf et al.
# Submitted via: CedeCatalogueitor 2.6.0.6 http://personales.ya.com/cdcatalogueitor
#
DISCID=920c480c
DTITLE=Michael Jackson - Bad
DYEAR=1987
DGENRE=
TTITLE0=Bad
TTITLE1=The Way You Make Me Feel
TTITLE2=Speed Demon
TTITLE3=Liberian Girl
TTITLE4=Justgood Friends
TTITLE5=Another Part Of Me
TTITLE6=Man In The Mirror
TTITLE7=I Just Can´t Stop Loving You
TTITLE8=Dirty Diana
TTITLE9=Smooth Criminal
TTITLE10=Leave Me Alone
TTITLE11=Bad Instrumental
EXTD=
EXTT0=
EXTT1=
EXTT2=
EXTT3=
EXTT4=
EXTT5=
EXTT6=
EXTT7=
EXTT8=
EXTT9=
EXTT10=
EXTT11=
PLAYORDER=
